# xmcd
# Copyright (C) 1995-1998 Ti Kan
#
# Track frame offsets:
#       150
#       1253
#       6298
#       7986
#       9046
#       10293
#       11607
#       12746
#       13933
#       15153
#       16742
#       19326
#       22045
#
# Disc length: 345 seconds
#
# Revision: 0
# Processed by: cddbd v1.5.2PL0 Copyright (c) Steve Scherf et al.
# Submitted via: CD-Import v1.0
#
DISCID=7801570d
DTITLE=Andrew - Dickie Dick Dickens
DYEAR=1900
DGENRE=
TTITLE0=Hörspieljingle
TTITLE1=Anmodi Dickie1und2
TTITLE2=Abmodi Dickie 1und2
TTITLE3=Anmodi Dickie 3und4
TTITLE4=Abmodi Dickie 3und4
TTITLE5=Anmodi Dickie 5und6
TTITLE6=Abmodi Dickie 5und6
TTITLE7=Anmodi Dickie 7und8
TTITLE8=Abmodi Dickie 7und8
TTITLE9=Anmodi Dickie 9und10
TTITLE10=Abmodi Dickie 9und 10
TTITLE11=Anmodi Dickie 11und12
TTITLE12=Abmodi Dickie 11und12
EXTD=
EXTT0=
EXTT1=
EXTT2=
EXTT3=
EXTT4=
EXTT5=
EXTT6=
EXTT7=
EXTT8=
EXTT9=
EXTT10=
EXTT11=
EXTT12=
PLAYORDER=
